<svg xmlns="http://www.w3.org/2000/svg" viewBox="0 0 2829.78 1594.93"><defs><style>.cls-1{fill:#464646;}.cls-2{fill:#6b6b6b;}.cls-3{fill:#989898;}.cls-4{fill:#444;}.cls-5{fill:#8c8c8c;}</style></defs><title>자산 1</title><g id="레이어_2" data-name="레이어 2"><g id="레이어_1-2" data-name="레이어 1"><path class="cls-1" d="M2727.05,1.75s32.54,3.83,64.82,34.38S2828,102.06,2828,102.06a127.57,127.57,0,0,1,1.41,31.83c-1.73,23-7.13,36.86-7.13,36.86l-8.84,20.61-10.69,21.34-8,23.4-8,20-18.11,41.76-10,23.18a97.41,97.41,0,0,0-5.6,23.07c-1.59,13.32-19.44,39-19.44,39S2694.87,433,2647,441a8.2,8.2,0,0,0-4.07-1.39,5.4,5.4,0,0,0-4,3l-13.08,3.71-19.59,2.18-23.41,2.69-3.66-1.93-4.63,1.6L2559.17,452l-12.52.72-7.75.09-5.72.77-6,2.27-3-.56-5.15-2.22s-9-1.69-15,.58-11,4.41-11,4.41-6.72,7.7-9.45,9-11.86,5.5-11.86,5.5L2451,480.7l-15,4s-3-.57-3.81.52-4.68,8.39-4.68,8.39-8,12.73-11.81,16.65c0,0-17.68,19.86-24.37,24.17-7.11,4.84-23.35,13.84-28.4,16S2327.52,561,2327.52,561l-12.11.19-8.7.21-2.45-.16-3.66-1.93-3.94-.43-4.76.65-10.07.88-4.35.1a57.66,57.66,0,0,0-11.84,2.1,48.34,48.34,0,0,1-12.39,1.68s-10,8.63-14.77,12.67-16.66,9.54-16.66,9.54-21.89,38.87-65.07,49.59c0,0-4.2,36.95-38.33,75.06,0,0-8.9,9.45-17.22,12.52l-17.63,13.07s-12,7.94-24.56,12.07c0,0-5.64,8.52-10.55,11.62,0,0-5.56,16.27-20.59,27a3.06,3.06,0,0,1-4.61-1.8s-3.12-1.52-2.6,2.29-4.27,7.86-4.27,7.86l-7.93,5.92S1991.91,815.65,1991,809a70.62,70.62,0,0,1-20.62,12.51c-12,4.54-28.24,13.53-31.62,10.11a1.36,1.36,0,0,0-1.65,2.16c1.09.83-23.14,4.6-23.14,4.6L1901.59,840a18,18,0,0,1-6-1.13s-22,2-33.71-1.73-17.78-5.84-17.78-5.84-14.78-5.27-22.35-11l-61.68-46.94s-36.46,3-62.21,9.9l-16.22,5.6-16.76,5.19-24.39,6.22-20,6.11-24.25,7.17-37.33,10.89a9.41,9.41,0,0,0-5.2,4.59c-1.93,3.66-11.91,30.24-11.91,30.24l-13.42,33.36s-1.93,3.65-1.67,5.56,1.16,8.57-.1,13.6-1,13.72-27.17,35.7c0,0-25.46,23.35-30.37,26.44s-33.83,15.27-33.83,15.27L1405.79,1001l-32.6,13.64-24.84,13.56-40.26,21.47-36.46,21-19.1,9.38s-15.42,7.92-22.09,8.82-26.11.64-26.11.64-10.61.47-19.21,5a57.86,57.86,0,0,0-14.49,11.18s-13.17,17.32-26.12,22c-9.14,4.16-41.94,27-41.94,27s-23.24,18.2-45.82,19.81-38.37,3.26-38.37,3.26-26.53,1.18-42.3,20.78l-24.22,21.73s-19,20.53-29,25.76-27.42,12.46-27.42,12.46l-16.22,5.59s-7.49,2-11.84,2.1-27.76,2.79-51.25-2.26C798.61,1260,780,1237.26,780,1237.26l-82.11-22.33-29.23,38.41s-24.17,14.93-30.58,17.74-12.56,7.53-26.7,7c0,0-26.84,27.41-43.06,33,0,0-1.91.26-2.47,3.25s-3,14-3,14-1.15,9.38-9.67,21.69c0,0-4.11,5.41-4.42,10.3a23.3,23.3,0,0,1-1.82,8s-.59,6.39-10.25,6.73l-.87,7.88s.08,7.75.47,10.61l-3.4,0-7.69,11.23s3.58,12.13,0,18S506,1452.5,506,1452.5l-15.93,22s-3.7,4.87-4.14,8.81-15.28,26.82-15.28,26.82l-20.17,26.51s-23.42,24-35.57,31-30.84,15.83-35.48,17.43-28.34,9.18-47.25,9.32c0,0-30.05.2-50.24-9.19-20.61-8.84-26.3-11.47-26.3-11.47a123.3,123.3,0,0,1-38.34,17.82s-16.22,5.6-30.74,2.23l-22.41-4.23-21.71-6.27-9.22-3.6-8.5-9-8.1-9.57-11.05-13.54s-7.27-10.66-10.08-17.07-6-19.08-7.3-25.21c0,0-1.68-12.38-6-19.07L62,1458.91s3.14-1.88,1.8-4.61-4.2-2.34-6.37-4a28.76,28.76,0,0,1-6.75-6.84c-3-4-12.78-19.13-12.78-19.13s-14.77-26.62-17.71-34c-3.35-6.83-12.82-33.68-14.68-40.22l-2.63-12.25-2.2-16.2L0,1302.38l1.22-19.58,2-10.45,2.11-9.51L8,1253.75l3.19-8.68,3.32-7.73,3.86-7.31,6.46-9.61s-1.21-1.78.3-4.89a5.72,5.72,0,0,1,4.92-3.1l2.75-4.74s9.6-11.49,17.81-18.91,25.56-19,25.56-19,17.13-9.6,35.65-12.6,40.14-4.48,55.21-.7l9.11-.76s27-8.51,40.46-9.37,43.51-1,65.05,11.06c0,0,7.65-4.43,25-4.85,0,0,2.22-5.15,8.8-13.81s17.27-19.32,17.27-19.32,16.7-16.34,31-21.68l1.36-.67-.9-6.67-4.35.11-.34-9.66,2.08-6.1-.63-26.11s-6.54,1.85-7.58-5.77.67-37.93.67-37.93.31-4.89,4.66-5a11.36,11.36,0,0,0,6.54-1.86s2.19-1.75,0-3.4l-2-.69s-4.35.11-5.13-5.61,6.43-24.16,6.43-24.16l2.36-7.6s.59-6.38,6.79-17.9l10.52-26.17s1.52-3.12,4.09-2a1.52,1.52,0,1,0,.57-3l-2-.69s-1.08-.83,0-3.4c0,0,3.63-12.62,17.6-27.62,13.44-15.4,32.95-25.33,38.21-18.77,0,0,1.64-2.16,3.68-1.47,0,0-.49-7.21,6.3-7.16,0,0,2.45.15,3.43-3.37.28-1.5.71-5.44,4.81-7.45,0,0,17-6.68,35.53-6.28s39.82,3.82,55.4,11.4,72,44.56,88.8,57.33l23.8,18.11-2.07,24.06L661,954.08a20.89,20.89,0,0,0,5,11.45c4.58,5.2,6,19.08,6,19.08s7.65-4.43,12.34,5.12,7.81,11.07,11.44,16.4,14.39,23.76,17.43,35.47L781.62,1074s20.41-21.21,41.88-38.19,48.13-38.55,48.13-38.55,19.56-16.73,60.94-22.83c31.92-4.33,32.78-1.54,52.92-3.3a62.16,62.16,0,0,0,28.76-9.73s15.31-12.26,26.1-18.58,43.38-20,43.38-20,18.28-8.31,26.21-14.23,40.67-22,40.67-22a92.45,92.45,0,0,1,38.13-8.57s18.34,2.85,30.16,4.15,30.25-9.44,30.25-9.44l10.53-8.22,42.6-43.62,22.57-19.56s1-.13,5.5-9.48,43.58-86.45,43.58-86.45-3.12-40.81,15.22-77.26l13.25-27.51,66.81-65.35,71.41,36.4s78.55-32.49,121.86-42.25,100-3.38,100-3.38,91.52-1.26,128.16,29.18c0,0,22.7-18.61,33.87-22.06,0,0,.46-7.34,7.72-14.63l5.38-10.44s-2.68-5.46,2.13-12.9c0,0,14.33-26.69,31.85-44.11s29.14-24.81,29.14-24.81,14.08-10.64,21.29-11.14L2034.2,398s13.33-19.76,29.34-34.06,42.91-30.57,62.33-26.9c0,0,3.7-4.87,8.18-4,0,0,18.72-12.24,37.88-10.48,0,0,10.37-5.77,22.61-5a68.94,68.94,0,0,1,32.72-12.69s11.83-20,21-27.6l4.24-4.45,6.28-3.77,6.41-2.81,4.64-1.6,2,.7,1.39-4.07,1.11-2.58,2.6-2.29,3.14-1.88,4.35-.11,4.89.31,2.45.15,2.19-1.75,2.73-1.34-.26-1.91,3.94.44,1.9-.26.83-1.08,4.65-5,3.82-.52,2,.7,1.62,1.23,1.09.82,2,.7.41-.54,2.19-1.75-.8-2.32,1.78-1.21,27.37-5.66L2353,234s7.54-8.78,33.46-21.52c28.5-11.63,79.93-15.21,79.93-15.21s28.47-8.24,38.26-7.62L2528,172.37s13.38-26.56,27.92-44.54S2575,103.89,2575,103.89s3.83-3.92,0-6.8.62-9.78.62-9.78l10.46-19.37,6.42-2.82-2.43-3.55,6.59-8.65s25.4-34.5,71.18-47.51C2698.13-4,2727.05,1.75,2727.05,1.75Z"/><path class="cls-2" d="M1391.53,842.32s-6.13,1.32-10,8.63l-8.16.62-7.21.5-7.9,2.53-5.74,4.17-6.28,3.76-6.18,8.12-4.38,3.5-9,11.91-2.93,10.58-.49,10.74-6.17,8.12s3.27-.93,5.41,4.11,13.52,10.3,13.52,10.3-.84,4.48,5.11,9a31.26,31.26,0,0,0,12.88,5.53l1.18,5.17,21.12-5.29,3.11,1.52,5.07-5.54,1.24-1.63,1.23-1.62.93,3.27,12.15-7a26.13,26.13,0,0,0,19.41-14.28c6.48-13,10.06-18.83,10.06-18.83s3.78-15.07-6-22.48l-3-4s2.88-3.79.45-7.34l-2.66,1.81-6.62-5.89-2.58-1.11a6.17,6.17,0,0,0-7.08,1.45,11.19,11.19,0,0,0-5.51-8.47l.43-3.94-2.57-1.1Z"/><path class="cls-2" d="M2699,205.92l2.32-.8,9.22,3.6,5.28,3.17,5.41,4.12,3.5,4.37s-3.5-4.37-5.15-2.21-3.73,8.27-3.73,8.27-4.35.1-5.74,4.17.24,5.31.24,5.31l-9.21,14.35-1.28,8.42,4.32,3.29-1,10.33c-13-6.48-15.55,7-15.55,7L2691.2,306l-.79,15.63-2.86.39s-7-5.35-4.91,3.09-2.78,8.14-2.78,8.14l4.33,3.29-4.1,2s-3-.56-2.83-3-3.12-1.51-3.12-1.51l-2.86.38-3.29,4.33-7.23,3.89-4.94,6.5-2.73,1.34-8.29-.33-7.42,9.74-.84,4.48s-6.44,6.21-12.44,8.48-6.23-3-6.23-3c3.16-5.28-3.63-5.33-3.63-5.33l-2.32.8c-3.51-4.37-8.7.21-8.7.21l-6.46,9.61-8,1.58-15.19-4.73-26.63-3.18L2514,365.9l-6.82,3.35s-.87,7.88-4.14,8.81-2.71-2.06-2.71-2.06c3.17-5.28-1.85-6.54-1.85-6.54a10.2,10.2,0,0,1-10.2-.07c-5.28-3.17-7.75.08-7.75.08s-1.13,6-3.32,7.73a11.63,11.63,0,0,1-5,2.14l-12.87,12.42-14.72,5.88-25.31,2.95s-12.28,6-17.35,11.57-13,4.67-13,4.67l-4.4,6.9-13.75,2.35-1,3.53c8.81,4.14,7.7,6.72,7.7,6.72s.6,11.56-1.3,11.82-3.25-2.47-3.25-2.47l-1.75-2.19-7.8,6.88c6.93,1,7.32,3.86,7.32,3.86l-3.17,5.28c5.15,2.21,3.22,5.87,3.22,5.87s-8,12.73-10.85,16.51-11.26-4.29-11.26-4.29l-2.45-.15s-3.6,9.22-7.82,10.28-5.95-4.53-5.95-4.53c-1.52,3.11-8.19,4-8.19,4l-43.48,72.85-3.33.45a57.66,57.66,0,0,0-11.84,2.1,48.34,48.34,0,0,1-12.39,1.68s-10,8.63-14.77,12.67-16.66,9.54-16.66,9.54-21.89,38.87-65.07,49.59c0,0-4.2,36.95-38.33,75.06,0,0-8.9,9.45-17.22,12.52l-17.63,13.07s-12,7.94-24.56,12.07c0,0-5.64,8.52-10.55,11.62,0,0-5.56,16.27-20.59,27a3.06,3.06,0,0,1-4.61-1.8s-3.12-1.52-2.6,2.29-4.27,7.86-4.27,7.86l-7.93,5.92S1991.91,815.65,1991,809a70.62,70.62,0,0,1-20.62,12.51c-12,4.54-28.24,13.53-31.62,10.11a1.36,1.36,0,0,0-1.65,2.16c1.09.83-23.14,4.6-23.14,4.6L1901.59,840a18,18,0,0,1-6-1.13s-22,2-33.71-1.73-17.78-5.84-17.78-5.84-14.78-5.27-22.35-11l-61.68-46.94s-36.46,3-62.21,9.9l-16.22,5.6-16.76,5.19-24.39,6.22-20,6.11-24.25,7.17-37.33,10.89a9.41,9.41,0,0,0-5.2,4.59c-1.93,3.66-13,32.82-13,32.82l-55.33,7-5.06-33.76L1438,841.35l.43-21.89L1435.27,800l-9.07-6c-4.89-.31-11.64-7.15-11.64-7.15-9.61-6.46-8.09-9.58-8.09-9.58-28-38.4-32.54-71.75-32.54-71.75s-3.12-40.81,15.22-77.26l13.25-27.51,66.81-65.35,71.41,36.4s78.55-32.49,121.86-42.25,100-3.38,100-3.38,91.52-1.26,128.16,29.18c0,0,22.7-18.61,33.87-22.06,0,0,.46-7.34,7.72-14.63l5.38-10.44s-2.68-5.46,2.13-12.9c0,0,14.33-26.69,31.85-44.11s29.14-24.81,29.14-24.81,14.08-10.64,21.29-11.14L2034.2,398s13.33-19.76,29.34-34.06,42.91-30.57,62.33-26.9c0,0,3.7-4.87,8.18-4,0,0,18.72-12.24,37.88-10.48,0,0,10.37-5.77,22.61-5a68.94,68.94,0,0,1,32.72-12.69s11.83-20,21-27.6l1.36-.67,5.28,3.17,3.3-4.33,3.65,1.93s-2.21,5.15,1.86,6.54,2.68,5.46,2.68,5.46-2.6,2.29-5-1.26-4.07-1.39-4.07-1.39A11.15,11.15,0,0,0,2257,295c1.6,4.64,3.66,1.93,3.66,1.93l3.7-4.87,6.13-1.31s3,.56,3.51,4.37,2.29,2.6,2.29,2.6,1.36-.67.85-4.48-2.56-4.51-2.56-4.51l.44-3.94,8.83.75s8.22,10.52,2.57,22.45A34.27,34.27,0,0,1,2277.2,319l0,3.4-4.36.1,6.84,14.6s6.72,10.25,14.22,8.26,10.42-12.57,10.42-12.57l-1-7.62a3.67,3.67,0,0,0,4.1-2l-1.66-15.78,8.7-.21,1.6,4.63c1.6,4.64,4.87,3.71,4.87,3.71l7-2.4,3.71-4.87,2.83,3c3.35,6.82,6.91,4.4,6.91,4.4l14.85-4.93,8.79,7.54,15.83-8.45,3.79,2.88,6.56-5.26c-4.71-6.15,2.26-11.95,2.26-11.95-.65-4.76,3.19-8.68,3.19-8.68l4.17,5.74,4.92-3.09-1.45-7.08,10.72,3.88,6.59-8.65,5.69,2.62,3.86-7.32L2457.8,277l8.62-8,4.07,1.39c-2.5,6.64,1.16,8.57,1.16,8.57l11.85-2.09,4-3,12-4.54,1.65-2.17,3.91,3.84a8.37,8.37,0,0,1,9.51,2.11,17,17,0,0,1,5.86-3.23c3.27-.93,6.78,3.45,6.78,3.45,4.76-.65,4.46,4.25,4.46,4.25s3.76,6.28,5.41,4.11a2.67,2.67,0,0,0-.52-3.81,4.39,4.39,0,0,1-1.47-3.68,6.65,6.65,0,0,1,2.34-4.2s-.93-3.27,1-3.53,3.24,2.47,3.24,2.47l6.13-1.31,3.79,2.88,2.86-.39,4.32,3.29,4.77-.64,4.68-8.4,2.58,1.11,6.69-4.31-1.45-7.08-5.79-7,3.57-5.83,2.86-.38,6.59-8.66-.93-3.27,7.13-8.25,3,.57,4.4-6.9c-6.16-13.24,2.59-20.25,2.59-20.25l3.25,2.47,4.4-6.9c3.66,1.93,5.3-.24,5.3-.24,2.21-5.15-4.56-8.59-4.56-8.59l3.94.43s4.89.31,7.36-2.94-7.26-10.65-7.26-10.65l4.52-6,7.58,5.77,1.23-1.63-1.85-6.54,10.35-2.37,7.33-17.49L2631.73,118l6.67-.9,11.65,7.15,3.11,1.52,14-.45-1.6,34.66-4.72-6.15-5.78,11,.49,7.21,2.4,7-2.24,8.55-2.6,2.29-5.15-2.21s.7-2-.39-2.86-2.31.8-2.31.8-1.19-5.18-4.33-3.29c-5.05,2.14-3.73,8.26-3.73,8.26l1.45,7.09s-1.42,7.46-6.7,4.3-6.41,2.81-6.41,2.81.83-1.08-2.36,7.6-.36,11.69-.36,11.69-1.54,6.52-4.65,5a3.4,3.4,0,0,1-1.6-4.64l1.51-3.11-4.32-3.3-5.64,8.53c4.61,1.8.65,4.76.65,4.76l-12.56,7.53c8,8.62,15.76,1.74,15.76,1.74l1.47,3.68a44.4,44.4,0,0,1,7.75-.08c4.89.31,1.34,2.73,1.34,2.73l-3.81.52,1.06,4.22c-13.63,3.31-9.78,17.34-9.78,17.34-9.7,7.14-5.29,18.18-5.29,18.18-2.58-1.1-4.38,3.51-4.38,3.51s.43-3.94-3.51-4.38-5.32,3.64-5.32,3.64l2.21-5.16-.5-7.21-7.1,4.85c-9.66.34-10.94,8.76-10.94,8.76l3.53,1-6.56,5.25s-1.76-2.18-3.53-1a5.22,5.22,0,0,0-1.93,3.66,22.53,22.53,0,0,0-14.92-6.23c-9.24-.2-11.71,3.05-11.71,3.05l-2-4.1-4,3-14.24-4.86-10.46-2s0,3.4-4.53,6-3.78-2.88-3.78-2.88l.43-3.94-7.8,6.88,1.89,3.14s-1.37.67-5.57-1.67-3.14,1.88-3.14,1.88,6.21,6.44-5.33,3.64c-9.89-5-15.24,2.07-15.24,2.07-7.06-2-3.07-8.32-3.07-8.32a15.63,15.63,0,0,0-10.68,10.67l.65,4.76L2452,312.7s-4.09,2-3.89-7.23-8.35-11.48-8.35-11.48,1.79,16.74-9.26,21.15c-8.44,2.11-10.82-8.24-10.82-8.24-12.69,6.58-13.56,14.46-14.82,19.48s-4.79,4.05-4.79,4.05l-1.44,10.86c-4.19-2.34-9.93,1.84-9.93,1.84s-4.72-6.15-6.47-8.34-4.77.64-4.77.64c-4.17-5.74-11.82-1.3-11.82-1.3l-28.34,9.18-5.65-9.42-6,5.67,2.4,6.95a37.12,37.12,0,0,0-24.07,19.28c-6.09,15.86,1.05,25.57,1.05,25.57s-6.5-4.94-12,4.54-9.86,9.58-9.86,9.58-4.07-1.39-14.78-5.27-22.05,2-22.05,2l-14.36,12.14s-3.27.93-17.15,2.33-20.65-2.05-20.65-2.05l-22.79,10.85-3.16,5.28-9.81,2.79c-5.54-5.07-9.53,1.29-9.53,1.29l-6.51-1.54-17-.12-3.39,17.93.45,14-16.09,6.55L2083.81,499c-17.44,3.82-34.5,13.9-34.5,13.9l-24.45,34.36-12.25,59.88s2.45.16-13.21,2.77S1966,624.63,1966,624.63l-12.57,7.53-24.64,43.61-45.45,4.71-7.63-16.91-5.28-3.17-50.65-30-29.61-3.75-64.05,0,3.45-6.77-47.92,8-12.54,4.13-22.22,7.86-48.25,16.25-36.17,19.47-20.33,11-55.28-28.39-10.91,23.31-4.21,19L1525.36,731l20.86-7.2,30.66-10,37.33-10.89,31.6-6.72L1654,685.4l7.37-2.94,4.32,3.3L1697,669.39l19.8,6.53c12.26-2.64,19.6-2.18,19.6-2.18l42.39,4.92a8.14,8.14,0,0,1,4.53-5.95s2.19-1.75,9.24.2,13.16,4,13.16,4l18.12,15.49-.57,3,33.91,31.78,2.47-3.25,24.6,20.44,6-2.27,2.43,3.55,62.28-20.1,6.87-10.15,18.28-8.3-9.2-7,14.28-19.89-3.79-2.88c-2.16-1.65.57-3,.57-3l55.12-26.4L2053.75,635c3.12-37.78,28.05-82.89,28.05-82.89L2107.19,539l13.52,10.3,17.09-13.48-6.88-7.8s11.59-4,24.07-19.28,18.33-15.1,18.33-15.1a18.59,18.59,0,0,0,9,1.7s8.08-8.38,7.15-11.65,1.41-7.47,1.41-7.47l18.47,3.8,6.12-19.26c10.19.07,19.13,5.16,19.13,5.16l23.89-13.43,12.19,7.57,35.35-.44,5.7,2.63,6.12-1.32a60.08,60.08,0,0,1,11.8,4.71c4.74,2.75,7.34.46,7.34.46s3.47-10.18-.88-10.07-4.61-1.8-4.61-1.8l3.16-5.28,9.77,4,6.07-12.47-6.5-4.94,2.44-17.8s1.88,3.15,4.07,1.39,2.21-5.15,2.21-5.15c7.62-1,13.39-8.61,13.39-8.61l2.16,1.65,5-13.29,4.61,1.8s13.57,3.49,12.93-1.27,1.67-5.56,1.67-5.56c2.83,3,4.76-.65,4.76-.65l11.46-4.95,6.54-1.86,6.12-1.32,18.78-1.09,4.27-7.86,2.06-2.7,1.49.28,4.17,5.74,1-6.93-3.78-2.88,14-18.39c.77,5.71,7.18,2.9,7.18,2.9s1.32,6.13,6.49,4.94,4.94-6.49,4.94-6.49,5.33-3.63,7.45,4.81,8.66,6.59,8.66,6.59,7.57,5.76,9.76,4-1.58-8-1.58-8c7.75-.08,11.74-6.45,11.74-6.45,7.06,2,9.14-4.15,9.14-4.15,3.66,1.93,4.64-1.6,4.64-1.6s2.78,9.81,5.77,10.38a3,3,0,0,0,3.55-2.43l5.85.18s1.88,3.14,5.15,2.21a3.55,3.55,0,0,0,2.88-3.78s-2.57-1.11,2.88-3.79,15.25-2.07,15.25-2.07c8.27,3.73,10.69,7.28,10.69,7.28s5.13,5.61,8.14,2.78-1.06-4.22-1.06-4.22a3.4,3.4,0,0,1,.43-3.94,7.52,7.52,0,0,1,4.51-2.56s16.17,1.2,20.16-5.16,4.51-2.55,4.51-2.55l.23,5.3c2.53,7.91,7.57,5.77,7.57,5.77s4.23-1.06,3.43-3.38-4.48-.84-4.48-.84-3.25-2.47,1.54-6.52,3.44-6.78,3.44-6.78l13.24-6.16s2.83,3,6.1,2.08,4.66-5,4.66-5c2.45.15,4.66-5,4.66-5s3.79,2.88,5.3-.24-3-4-3-4c-.11-4.35-3-.57-3-.57l-7.18-2.9-.8-2.32,9.46-12.44,4.92-3.1s-1.39,4.07,2.14,5,4.79-4,4.79-4c6.13-1.32,1.26-5,1.26-5a6.14,6.14,0,0,0,1.54-6.51s-.8-2.32-6-4.53-1.06-4.22-1.06-4.22,3.81-.52,2.88-3.79a3.33,3.33,0,0,0-4.2-2.34s-3-4-1.18-5.18,4.61,1.8,4.61,1.8l12.8,15.73L2681.54,249l4-3s-3.79-2.88,2.34-4.2,3.45-6.77,3.45-6.77-3.77-6.29-1.84-9.94,4.79-4,4.79-4-11.67-3.75-5.21-13.36c6.72-7.71,9.94-1.84,9.94-1.84"/><path class="cls-3" d="M2675.1,119.41l5.38-10.43s8-1.58,23.73-11l16.13,8s16.54,7.45,12.5,20.62-20.9,14-20.9,14a6.89,6.89,0,0,0-5.23,8,18,18,0,0,1-1.95,7.05s4.87,3.71-1.18,12.78l-5.37,10.43,5.95,4.53L2699,205.92s-3.22-5.87-9.94,1.84c-6.46,9.61,5.21,13.36,5.21,13.36s-2.86.39-4.79,4,1.84,9.94,1.84,9.94,2.68,5.45-3.45,6.77-2.34,4.2-2.34,4.2l-4,3,2.66,26.81-12.8-15.73s-2.84-3-4.61-1.8,1.18,5.18,1.18,5.18a3.33,3.33,0,0,1,4.2,2.34c.93,3.27-2.88,3.79-2.88,3.79s-4.09,2,1.06,4.22,6,4.53,6,4.53a6.14,6.14,0,0,1-1.54,6.51s4.87,3.71-1.26,5c0,0-1.26,5-4.79,4s-2.14-5-2.14-5l-4.92,3.1-9.46,12.44.8,2.32,7.18,2.9s2.88-3.78,3,.57c0,0,4.48.85,3,4s-5.3.24-5.3.24-2.21,5.15-4.66,5c0,0-1.39,4.07-4.66,5s-6.1-2.08-6.1-2.08l-13.24,6.16s1.35,2.73-3.44,6.78-1.54,6.52-1.54,6.52,3.68-1.47,4.48.84-3.43,3.38-3.43,3.38-5,2.14-7.57-5.77l-.23-5.3s-.52-3.81-4.51,2.55-20.16,5.16-20.16,5.16a7.52,7.52,0,0,0-4.51,2.56,3.4,3.4,0,0,0-.43,3.94s4.07,1.38,1.06,4.22-8.14-2.78-8.14-2.78-2.42-3.55-10.69-7.28c0,0-9.79-.61-15.25,2.07s-2.88,3.79-2.88,3.79A3.55,3.55,0,0,1,2552,353c-3.27.93-5.15-2.21-5.15-2.21l-5.85-.18a3,3,0,0,1-3.55,2.43c-3-.57-5.77-10.38-5.77-10.38s-1,3.53-4.64,1.6c0,0-2.08,6.11-9.14,4.15,0,0-4,6.37-11.74,6.45,0,0,3.77,6.28,1.58,8s-9.76-4-9.76-4-6.54,1.86-8.66-6.59-7.45-4.81-7.45-4.81.24,5.31-4.94,6.49-6.49-4.94-6.49-4.94-6.41,2.81-7.18-2.9l-14,18.39,3.78,2.88-1,6.93-4.17-5.74-1.49-.28-2.06,2.7-4.27,7.86-18.78,1.09-6.12,1.32-6.54,1.86-11.46,4.95s-1.93,3.66-4.76.65c0,0-2.32.8-1.67,5.56s-12.93,1.27-12.93,1.27l-4.61-1.8-5,13.29-2.16-1.65s-5.77,7.58-13.39,8.61c0,0,0,3.4-2.21,5.15s-4.07-1.39-4.07-1.39l-2.44,17.8,6.5,4.94L2344.39,453l-9.77-4-3.16,5.28s.26,1.9,4.61,1.8.88,10.07.88,10.07-2.6,2.29-7.34-.46a60.08,60.08,0,0,0-11.8-4.71l-6.12,1.32-5.7-2.63-35.35.44-12.19-7.57-23.89,13.43s-8.94-5.09-19.13-5.16L2209.31,480l-18.47-3.8s-2.34,4.2-1.41,7.47-7.15,11.65-7.15,11.65a18.59,18.59,0,0,1-9-1.7s-5.85-.18-18.33,15.1S2130.92,528,2130.92,528l6.88,7.8-17.09,13.48L2107.19,539l-25.39,13.15s-24.93,45.11-28.05,82.89L2037.08,648,1982,674.37s-2.73,1.34-.57,3l3.79,2.88-14.28,19.89,9.2,7-18.28,8.3L1955,725.58l-62.28,20.1-2.43-3.55-6,2.27L1859.64,724l-2.47,3.25-33.91-31.78.57-3L1805.71,677s-6.1-2.09-13.16-4-9.24-.2-9.24-.2a8.14,8.14,0,0,0-4.53,5.95l-42.39-4.92s-7.34-.46-19.6,2.18l-19.8-6.53-31.26,16.37-4.32-3.3L1654,685.4l-8.23,10.82-31.6,6.72-37.33,10.89-30.66,10-20.86,7.2-53.63-30.56,4.21-19,10.91-23.31,55.28,28.39,20.33-11,36.17-19.47,48.25-16.25,22.22-7.86,12.54-4.13,47.92-8-3.45,6.77,64.05,0,29.61,3.75,50.65,30,5.28,3.17,7.63,16.91,45.45-4.71,24.64-43.61,12.57-7.53s17.76-12.11,33.41-14.72,13.21-2.77,13.21-2.77l12.25-59.88,24.45-34.36s17.06-10.08,34.5-13.9l22.49-27.31,16.09-6.55-.45-14,3.39-17.93,17,.12,6.51,1.54s4-6.36,9.53-1.29l9.81-2.79,3.16-5.28,22.79-10.85s6.77,3.45,20.65,2.05,17.15-2.33,17.15-2.33l14.36-12.14s11.33-5.9,22.05-2,14.78,5.27,14.78,5.27,4.35-.1,9.86-9.58,12-4.54,12-4.54-7.14-9.71-1.05-25.57A37.12,37.12,0,0,1,2328,346.51l-2.4-6.95,6-5.67,5.65,9.42,28.34-9.18s7.65-4.44,11.82,1.3c0,0,3-2.83,4.77-.64s6.47,8.34,6.47,8.34,5.74-4.18,9.93-1.84l1.44-10.86s3.53,1,4.79-4.05,2.13-12.9,14.82-19.48c0,0,2.38,10.35,10.82,8.24,11.05-4.41,9.26-21.15,9.26-21.15s8.55,2.24,8.35,11.48,3.89,7.23,3.89,7.23l1.24-1.62-.65-4.76a15.63,15.63,0,0,1,10.68-10.67s-4,6.36,3.07,8.32c0,0,5.35-7,15.24-2.07,11.54,2.8,5.33-3.64,5.33-3.64s-1.06-4.22,3.14-1.88,5.57,1.67,5.57,1.67l-1.89-3.14,7.8-6.88-.43,3.94s-.72,5.44,3.78,2.88,4.53-6,4.53-6l10.46,2,14.24,4.86,4-3,2,4.1s2.47-3.25,11.71-3.05a22.53,22.53,0,0,1,14.92,6.23,5.22,5.22,0,0,1,1.93-3.66c1.77-1.21,3.53,1,3.53,1l6.56-5.25-3.53-1s1.28-8.42,10.94-8.76l7.1-4.85.5,7.21-2.21,5.16s1.38-4.07,5.32-3.64,3.51,4.38,3.51,4.38,1.8-4.61,4.38-3.51c0,0-4.41-11,5.29-18.18,0,0-3.85-14,9.78-17.34l-1.06-4.22,3.81-.52s3.55-2.42-1.34-2.73a44.4,44.4,0,0,0-7.75.08l-1.47-3.68s-7.8,6.88-15.76-1.74l12.56-7.53s4-3-.65-4.76l5.64-8.53,4.32,3.3-1.51,3.11a3.4,3.4,0,0,0,1.6,4.64c3.11,1.52,4.65-5,4.65-5s-2.83-3,.36-11.69,2.36-7.6,2.36-7.6,1.13-6,6.41-2.81,6.7-4.3,6.7-4.3l-1.45-7.09s-1.32-6.12,3.73-8.26c3.14-1.89,4.33,3.29,4.33,3.29s1.23-1.62,2.31-.8.39,2.86.39,2.86l5.15,2.21,2.6-2.29L2658,179l-2.4-7-.49-7.21,5.78-11,4.72,6.15,1.6-34.66,11.31-2.5Z"/><path class="cls-4" d="M2667.17,125.34l11.31-2.5-3.38-3.43,5.38-10.43s8-1.58,23.73-11l16.13,8s16.54,7.45,12.5,20.62-20.9,14-20.9,14a6.89,6.89,0,0,0-5.23,8,18,18,0,0,1-1.95,7.05s4.87,3.71-1.18,12.78l-5.37,10.43,5.95,4.53-4.92,21.38s13.59,3.16,21.42,10.82,5.62,12.83,5.62,12.83c11,5.78,13.74,19,13.74,19l3.71,13.08s9,1.7,12.34,5.12.78,5.72.78,5.72c-2.17-1.65-2.19,1.75-2.19,1.75l4.56,8.6c11.1,6.74,9.47,16.18,9.47,16.18l18.11-41.76,8-20,8-23.4,10.69-21.34,8.84-20.61s5.4-13.83,7.13-36.86a127.57,127.57,0,0,0-1.41-31.83s-3.83-35.38-36.12-65.93-64.82-34.38-64.82-34.38S2698.13-4,2667.88,5.41c-45.78,13-71.18,47.51-71.18,47.51s4.69,9.55,16.47,17.65,20.09,23,25.43,37.3,14.56,17.92,14.56,17.92l14-.45,11.31-2.5-3.38-3.43,5.38-10.43"/><polygon class="cls-1" points="1735.02 617.17 1702.26 615.31 1652.69 625.43 1603.73 647.12 1534.39 665.26 1524.92 677.7 1542.13 686.52 1598.63 656.05 1681.64 627.81 1729.56 619.85 1726.11 626.62 1787.71 626.51 1735.02 617.17"/><path class="cls-3" d="M1356.84,883.41s-12.54,4.13-13.43,15.41,1.53,14.83,1.53,14.83,6.42,15.14,23.44,11.86,20-9.51,20-9.51,8.83.74,15.42-7.92,5.27-14.78,5.27-14.78-1.55-11.44-15.1-18.33-27.45-2.1-27.45-2.1S1361.52,875,1356.84,883.41Z"/><path class="cls-2" d="M1103,986.27l4.12-5.41,5.18-1.19s6,1.13,4,8.19l3.78,2.88,4.61,1.8-1.79,4.61s2.68,5.46,7.18,2.91a15,15,0,0,0,6-5.67l9.2,7-2.75,4.74,7.42,8.21-2.47,3.24-9.09-2.64s1.6,4.63-1.28,8.42c0,0,7.9-2.53,7,5.35s-5.22,8-5.22,8l-8,9.32-.84,4.48,3.94.44-5.36,7a2.74,2.74,0,0,0-3.94-.43c-2.18,1.75-1.25,5-1.25,5l-4.12,5.41-4.12,5.41,1.19,5.18-4,3,.93,3.27-1.23,1.62-9.63-3.06s-4.4,6.91-9.81,2.79c0,0-3.71,4.87-13.88,1.4l-5.92,10,.26,1.9-3,2.84-9.35-4.55a64.29,64.29,0,0,1-33,10.78c-19.31.68-26-1.81-26-1.81l-13.58-3.5-7.34-.46-9.88,13a6.65,6.65,0,0,1-1.41,7.47c-1.78,1.21-3.79-2.89-3.79-2.89s-16.7,16.34-26.23,17.63c0,0-11.27,17.06-20.69,22.7l-15.49,18.11s4.2,2.35,2.14,5a5.39,5.39,0,0,1-5,2.14l-1.62-1.23-38.54,9.11a6.41,6.41,0,0,1-5.74,4.17c-4.36.11-5.13-5.61-5.13-5.61l-15,7.38a12.47,12.47,0,0,1-9.35-4.56l-11.56.6-8.12-6.17-5-1.26-.8-2.32-6-1.13-2-7.49,1.64-2.17s-18-14.54,2.45-39.14l6,1.13s4.35-.11,3.29-4.33,5.94-13.42,5.94-13.42a32.13,32.13,0,0,1,21.53-5.83l6.17-8.12,6.83-3.35,8.26,3.73,14.65-13.63s13.5-25.6,35-31.44c0,0,10.08-22.23,39.12-33.44,0,0,37-17.15,64.61-3,15.58,7.59,37.31-7.49,37.31-7.49a22.21,22.21,0,0,1,11.59-4l2.82-14.94,7.62-1s6.11,2.08,5.57,1.67,8.62-8,8.62-8l4.09-2-.56,3s6.41-2.81,9.94-1.83A5.58,5.58,0,0,1,1098,985C1101.66,983.54,1103,986.27,1103,986.27Z"/><path class="cls-3" d="M1040.68,1041.79s14.21-9.69,27.54-11.5c0,0,9.63-14.89,21.37-21.34s24.05,2.07,24.05,2.07,14.89,9.63,3.34,28.17a96.24,96.24,0,0,1-27.67,28.5s-14.73,5.88-22.76,7.46c0,0-10,8.63-21.42,10.18,0,0-27.93,8.64-49.49-.07s-32,7.25-32,7.25-10.9,23.31-36.5,27.76c0,0-8.56,19.11-21.1,23.24,0,0-7.59,15.58-17.68,19.86,0,0-10.21,21.28-44.57,14.78,0,0-27.11,7.56-36.58-19.29,0,0,.1-13.6,18.53-24.35,0,0,6.35-3.28,16.93-.35,5,1.26,10.76-2.92,10.76-2.92a24.34,24.34,0,0,1,10.66-7.27A74.48,74.48,0,0,1,883,1105.88l6-9.06s10.06-18.83,32.36-19l.56-3s-2.24-9.4,16.47-21.64c5.33-3.63,12.85-9,17.87-7.76,0,0,7-9.2,21.39-6.79s28.51,6.32,28.51,6.32S1026.14,1049.1,1040.68,1041.79Z"/><path class="cls-2" d="M462.79,933.93l-24,62.92s-13.36,44.51,3.19,69.91c0,0,5.1,9,12.05,6.62l-.72,5.43,8.12,6.17,5.2-4.58a7,7,0,0,1,8.27,3.73l21.51,15.51,10.09-4.28,9.09,2.65s4.48.85.52,3.81-17.66,16.47-17.66,16.47l-3-.57-1.39,4.07,1.88,3.14s-7.41,9.74-7.2,18.44.09,25.7.09,25.7l-20.62,12.51-29.21-22.24s-2.19,1.75-2.71-2.06L432,1154l-16.24,9-3.25-2.47-3,2.83-.3,4.89s1.47,3.69-3.3,4.33-8.57,1.17-14.65-4.32c0,0,2,4.1.36,6.26s-5.59,1.73-5.59,1.73l-2.31.8-12.64,17.72s1.79,16.74-4.36,21.46-7.78,3.48-7.78,3.48,2.1,11.84-1.59,13.31-12.25,2.64-16.37,8l-15-7.18a6.16,6.16,0,0,0-3.23-5.87c-3.65-1.93-23.94,2.28-23.94,2.28s-19.08,6-25.23,10.7a14.3,14.3,0,0,0-9.22-3.6c-5.85-.17-8.66-6.58-8.66-6.58l-5.54-5.07-5.69-2.63-10.7,32L194,1262.46l-3.51-4.37-9.07-6-.36-6.25-10.12,7.67s-2.14-5-.75-9.11c0,0-7.49,2-15.84-9.49L119.76,1259l-10.4,9.18L96,1273.34l-5,9.89,5.88,93.32,11.72,14.9s-1.54,6.52-6.43,6.21L105,1422l12.22,22.11,6.13-1.31,6.49,4.94s-5.22,8-2.7,15.89,16.21,15.75,16.21,15.75l1,7.62s19.31-.68,25.11,6.3a77.93,77.93,0,0,1,9.15,13.79l2.71,20,8.52-12.31,40.44,12,4.6-16.15-7.6-2.36,6.89-13.55,6.62,5.89,45.1,7,3-2.83,34.14-2.21,1.6,4.63s13.08-3.71,18.49.41l1.76,2.18,20-2.71.59-6.39,11.44-1.55,1.75,2.19s12.67-3.18,13.45-18.81c0,0,5.33-3.63,8.16-18.57l9.55-4.69s5.26,6.56,11,5.78l3.59-27.17,3.25,2.47,1.59-13.31s1.13-6-3.2-9.27l25.52-33.54s15.05,7.17,20,4.08l5.07-5.54,8.66,6.59s11.5-11.75,6.53-19.81l8.36-9.87s16.86-18.78,16-35.64l12.25-2.64,14.36-12.14s.57-3-1.88-3.14c0,0,4.92-3.09,2.63-5.69s-6.11-2.08-6.11-2.08a10.17,10.17,0,0,1-7.14-9.71c-.1-4.35-5.51-8.46-5.51-8.46l5-9.9s3.17-5.28-2.79-9.81c0,0-6-4.52-8.83-.74L506.93,1252l11.63-10.8,28.21,11.21,5.53-12.88a7.1,7.1,0,0,0,6.12-1.31s2.19-1.75.18-5.85,8.11-11.77,8.11-11.77,8.21-7.42,7.2-18.44-.34-9.66-.34-9.66l18.18,5.29s22.33,14.44,33,.37,3.55-41.72,3.55-41.72-9.49-23.45-12.55-31.77l12.35-16.23s7.34.46,14.51-14.58,4.8-25.4,4.8-25.4l-6.7-13.64a12.35,12.35,0,0,1-7.88-.87c-3.66-1.93,2.11-9.51,2.11-9.51l-2.71-2-5.72.77-13-3.08,3.45-6.78s-20-18.63-30.29-44.4S581,950.39,581,950.39L572,945.3s-2.73,1.34-4.2-2.35-4.63,1.6-4.63,1.6-28.85-16-44-27.5c0,0-14.87-13-29.75-4.69S470.2,924.19,462.79,933.93Z"/><path class="cls-5" d="M234.23,1494.72l6.62,5.89,45.1,7,3-2.83,9-12.38,6.95-2.4,14.89,9.62s2.58,1.11,6.41-2.81S344,1481.28,344,1481.28L205,1375.47l-70.25,11.47s-.56,3,2,7.5,36.13,44.58,42.61,70.87l24.35,18.52L230,1491.9Z"/><path class="cls-3" d="M501.91,929.1l-16.11,9.95s-6.69,4.3-9.06,11.9-26.77,56.52-22.09,87.42,6.63,23.84,6.63,23.84,9.29-6.6,15.4-4.52,12.59,7,12.59,7l.39,2.85s-.15,2.45,5.95,4.53,16.15,4.6,16.15,4.6,5.69,2.63,9.66-.34,9.29-6.6,9.29-6.6,2.73-1.34,5-9.89a111.58,111.58,0,0,0,2.85-18.33l-5.39-7.52-2.82-13.69s.46-7.34,6.56-5.25a11,11,0,0,1,7.29,7.25l1.88,3.15,9.35,4.55,2.73-1.34,8.17-.63-.75,8.84-4.5,2.55s-1.91.26-2.75,4.74a61.87,61.87,0,0,0-1,6.93l3.5,4.37,2.29,2.6s-7.82,10.28-6.65,18.86c0,0-2.06,2.7.49,7.21l.75,9.11-5.59,1.73s-3.81.52-3.57,5.82l-.31,4.9-6.51-1.55s-11.53,15.15-22.32,21.47c0,0-10.11,7.68-10.73,17.46s-.13,38.35-.13,38.35l-34.8,18.79a17.23,17.23,0,0,0-6.57,5.26l-37.61-26.92-1.41,7.47-4.12,5.41s-1.93,3.66-6.26.37a88.58,88.58,0,0,0-11.1-6.74l-6.41,2.81-3.53-1-1.95,7.06s-8.62,8-7.59,15.58c0,0-6.72,7.71-.94,18.08,0,0,1.19,5.18-.33,8.29s3.89,7.24,3.89,7.24l-6.3,7.16s-2.06,2.7-4.36.1l.06,11.16s-8,1.57-9.19,10.94a21.13,21.13,0,0,0-19.7-2.17l-3.24-2.47.3-4.9-2.57-1.1-11-2.39L314.54,1250s-5.07,5.54-11.2,6.86l-5.09,8.94-11.41-1.85-3.71,4.87s-5.79,11-19.18,1.63c0,0-7.45-4.81-1-11l-5.57-1.67-18.39-14-12.8,2.23-3.09-4.92s-13.06.31-27,15.31c0,0-9.32,10-22.2,4.47s-31-6.47-31-6.47l-6.21-6.44s-17.35,11.57-19.44,17.68-19.4,14.28-19.4,14.28,2.33,35.09.36,45.55c0,0,7.31,3.86,10,16.12,0,0,9.43,12.3,10.31,22.37l11.57,17.35,21.7,27.62s25.1,27.64,31.45,53,7.36,36.35,7.36,36.35-.59,6.39,1.45,7.08,21-42.14,21-42.14l12.24-20.58,36.55,4.74,5,19.21,23.62,6s6.15-4.71,9.68-3.74c0,0,.06,11.15,4.26,13.49s15.6,4.19,15.6,4.19l1.84,9.94s10.42-12.57,23.48-12.89l2,7.49,20.45-6.65s7.21-.49,2.49-6.65l-1.75-2.18,8.13-15.18,4.61,1.8,5.61-5.12s2.19-1.76,1.95-7.06,7.26-7.29,7.26-7.29l2.14,5,1.9-.26,7-9.19,2.86-.39.61-9.79-5.56-1.67-6.08-5.48-2.29-2.6-4.07-1.39-4.9-.3-7.88-.87,2.47-3.25,8.17-.62,2.6-2.3,5.84.18,8-1.58,4.11-5.41,6.46-9.6s10.55-11.62,17.63-13.07c0,0,3.14-1.88-3.48-7.78,0,0,13.18-17.31,11.39-34,0,0,4.79-4,13.57,3.5,0,0,2.19-1.75,3.45-6.78,0,0,12.43-8.48,5.84-17.77l3.1-16.43s3.32-7.73-5.85-18.13c0,0,7.67-7.83,3.54-20.37,0,0,3.81-.51,10.81-9.71s4-13.16,4-13.16,4.27-7.86,12.15-7L503.9,1219l-4.07-1.39s-5-1.26-2.27-6,8.9-9.46,15.68-6,2.66,8.86,2.66,8.86-3.43,3.37,1.18,5.17,15.76,1.74,15.76,1.74,3.4,0,6.72-7.7,9-8.5,9-8.5l5.31-.24-.75-9.11-18.7-9.11,22.16-19,4.89.31,7.73,3.32,6.8,0,5.15,2.21,4.89.3,3.25,2.47,4.89.31,4.33,3.29,2.06-2.7,3.37,3.42,3.94.44.93,3.27s4.38-3.51.94-18.08-14.95-38.72-14.95-38.72l7.63-22.39a14.36,14.36,0,0,1,4.94-6.49c3.55-2.42,12.69-6.57,12.69-6.57a41.19,41.19,0,0,0,6.18-8.12c3.16-5.28,2.23-8.55.48-10.74s-.21-8.7-11.36-8.64l-21.29-28.16-14.3-16-8.58-16.79-9.65-21s-4.82-10.51-2.32-17.15l-30.07-17.75-20.71-13.2Z"/></g></g></svg>