<svg xmlns="http://www.w3.org/2000/svg" viewBox="0 0 188.82 32.55"><defs><style>.cls-1{fill:#fff;}</style></defs><title>자산 1</title><g id="레이어_2" data-name="레이어 2"><g id="레이어_1-2" data-name="레이어 1"><path class="cls-1" d="M23.24,21.44q-2.94-1.8-8.26-1.8t-8.22,1.8a5.18,5.18,0,0,0,0,9.29Q9.63,32.55,15,32.55c3.62,0,6.39-.61,8.33-1.82a5.17,5.17,0,0,0-.07-9.29Zm-3,7a15.16,15.16,0,0,1-5.2.8,15.16,15.16,0,0,1-5.2-.8A2.53,2.53,0,0,1,7.88,26c0-1,.66-1.76,2-2.27A14.69,14.69,0,0,1,15,23a14.59,14.59,0,0,1,5.12.81c1.36.51,2,1.27,2,2.27A2.55,2.55,0,0,1,20.2,28.46ZM17.33,11.9h8.4V8.43H7.63V4H25.38V.53H3.67V8.36a1.87,1.87,0,0,0,.56,1.37L6,11.45a1.7,1.7,0,0,0,1.19.45h6.3v2.73H0v3.5H29.75v-3.5H17.33ZM58.27,4.17a1.94,1.94,0,0,0-.59-1.44L55.93,1A1.7,1.7,0,0,0,54.74.53H35.87V4H54.42v6H32.2v3.53H44.94v3.64H35.87v3.33H54v2.31H35.87v5.45a1.87,1.87,0,0,0,.56,1.37l1.75,1.75a1.62,1.62,0,0,0,1.19.49H58.45V28.49H39.83V26.18h18.3v-9H49V13.51H62V10H58.27ZM81.2,17.85h8.92V1.75H68.25V14.28a2,2,0,0,0,.56,1.4l1.71,1.72a1.71,1.71,0,0,0,1.19.45h5.6V23.8H64.4v3.5H94.15V23.8h-13Zm-9-3.39V5.15h14v9.31Zm47.5,3.32a7.77,7.77,0,0,1-6.3,2.63H103V1.75h-4V20.23a2,2,0,0,0,.56,1.4l1.71,1.72a1.71,1.71,0,0,0,1.19.45h10.78q4.8,0,6.41-2.7V31.5h4V0h-4ZM151.9,10h-5.25v3.5h5.25v18h4V0h-4ZM139.12,20.41H134.5V14.17h9.87V10.85H134.5V5.25h10.75V1.75h-14.7V20.23a2,2,0,0,0,.56,1.4l1.71,1.72a1.71,1.71,0,0,0,1.19.45h5c1.56,0,3.15-.05,4.76-.16s2.91-.23,3.9-.38a3.78,3.78,0,0,0,1.59-.41V19.49c-.14.17-1.34.36-3.62.58S141.2,20.41,139.12,20.41Zm38-3.08a11.57,11.57,0,0,0,3.55-.51,8.71,8.71,0,0,0,2.28-1,6.39,6.39,0,0,0,1.1-1V18.2h4V0h-4V11.13h0v.32a9,9,0,0,1-1.19.92,9.84,9.84,0,0,1-2.29,1,10.45,10.45,0,0,1-3.38.54H167.4V10.85h10.92V1.05H163.45v3.5h10.92V7.28H163.45v6.48a2,2,0,0,0,.56,1.4l1.71,1.71a1.72,1.72,0,0,0,1.19.46Zm8.78,3.9q-2.87-1.87-8.33-1.88c-3.64,0-6.41.63-8.33,1.88a5.48,5.48,0,0,0-2.87,4.67,5.42,5.42,0,0,0,2.87,4.65,15.11,15.11,0,0,0,7.56,1.83h1.54A15.05,15.05,0,0,0,186,30.55a5.4,5.4,0,0,0,2.87-4.65A5.46,5.46,0,0,0,186,21.23Zm-1.12,4.67c0,.93-.67,1.69-2,2.26a13.73,13.73,0,0,1-5.2.89,13.4,13.4,0,0,1-5.18-.91c-1.35-.58-2-1.33-2-2.24s.68-1.64,2-2.2a15.69,15.69,0,0,1,10.36,0c1.33.53,2,1.26,2,2.16Z"/></g></g></svg>